<?xml version="1.0" standalone="no"?>
<!DOCTYPE svg PUBLIC "-//W3C//DTD SVG 20010904//EN"
 "http://www.w3.org/TR/2001/REC-SVG-20010904/DTD/svg10.dtd">
<svg version="1.0" xmlns="http://www.w3.org/2000/svg"
 width="64.000000pt" height="64.000000pt" viewBox="0 0 64.000000 64.000000"
 preserveAspectRatio="xMidYMid meet">

<g transform="translate(0.000000,64.000000) scale(0.100000,-0.100000)"
fill="#000000" stroke="none">
<path d="M0 320 l0 -320 320 0 320 0 0 320 0 320 -320 0 -320 0 0 -320z m258
158 c-3 -13 -15 -76 -29 -140 l-24 -118 -47 0 c-27 0 -48 3 -48 8 0 4 12 67
27 140 l28 132 48 0 c46 0 49 -2 45 -22z m132 9 c0 -6 -16 -86 -35 -176 -19
-90 -35 -165 -35 -167 0 -2 -23 -4 -50 -4 -47 0 -50 1 -45 23 3 12 19 87 35
167 17 80 32 151 35 158 6 16 95 16 95 -1z m119 -69 c-9 -46 -22 -109 -29
-140 l-11 -58 -50 0 c-43 0 -50 2 -45 18 2 9 12 55 21 102 32 166 29 160 84
160 l48 0 -18 -82z"/>
</g>
</svg>
